<svg width="15" height="17" viewBox="0 0 15 17" fill="none" xmlns="http://www.w3.org/2000/svg">
  <path fill-rule="evenodd" clip-rule="evenodd" d="M7.41589 8.17996V16.116C7.53646 16.1178 7.65487 16.083 7.75629 16.016L13.8902 12.384C14.1324 12.24 14.2306 12.018 14.2306 11.728V4.36496C14.2335 4.23992 14.1996 4.1169 14.1334 4.01196L7.61235 7.82896C7.5526 7.86443 7.50299 7.91545 7.4685 7.97689C7.43402 8.03833 7.41587 8.10803 7.41589 8.17896V8.17996ZM10.8228 12.737C10.8228 12.939 10.7498 13.04 10.5796 13.141L8.53531 14.351C8.38943 14.451 8.19492 14.401 8.19492 14.2V8.80296C8.19492 8.65896 8.31746 8.47196 8.43806 8.39996L13.1112 5.62596C13.2415 5.54796 13.3544 5.67196 13.3544 5.82696V8.70196C13.3544 8.85196 13.2863 8.98496 13.1598 9.05496L11.0669 10.215C10.9405 10.285 10.8237 10.419 10.8237 10.568V12.738L10.8228 12.737Z" fill="#999999"/>
  <path fill-rule="evenodd" clip-rule="evenodd" d="M0.600159 11.7281V4.36512C0.600159 4.07512 0.747015 3.80212 0.989183 3.65812L6.92861 0.178125C7.05699 0.108125 7.26901 0.078125 7.41489 0.078125C7.56175 0.078125 7.78738 0.115125 7.90215 0.178125L13.7929 3.65812C13.9097 3.73012 14.0672 3.89413 14.1333 4.01213L7.61038 7.84513C7.55076 7.88133 7.50143 7.93299 7.46729 7.99493C7.43316 8.05687 7.41543 8.12693 7.41587 8.19812V16.1161C7.27992 16.1183 7.14579 16.0838 7.02684 16.0161L1.03878 12.4341C0.795643 12.2911 0.601131 12.0181 0.601131 11.7281H0.600159ZM1.47644 5.82812V8.70212C1.47644 8.90412 1.52506 9.00513 1.71958 9.10613L3.76487 10.3161C3.95938 10.4171 4.00801 10.5681 4.00801 10.7201V12.7371C4.00801 12.9391 4.05664 13.0401 4.25115 13.1411L6.29645 14.3511C6.49096 14.4511 6.63684 14.4011 6.63684 14.2001V8.80312C6.64127 8.71832 6.62035 8.63415 6.57688 8.56193C6.53342 8.48971 6.46949 8.43289 6.3937 8.39913L1.8178 5.67612C1.67192 5.57512 1.47741 5.62612 1.47741 5.82712L1.47644 5.82812ZM9.46019 2.39812L7.65901 3.45712C7.51312 3.55712 7.31861 3.55712 7.17273 3.45712L5.37154 2.39713C5.31204 2.36315 5.24509 2.34532 5.17703 2.34532C5.10897 2.34532 5.04202 2.36315 4.98252 2.39713L2.74271 3.70912C2.5482 3.80912 2.5482 4.01213 2.74271 4.11213L7.22135 6.78613C7.28056 6.82104 7.34762 6.83941 7.41587 6.83941C7.48411 6.83941 7.55118 6.82104 7.61038 6.78613L12.089 4.11213C12.2349 4.01213 12.2835 3.81012 12.089 3.70912L9.84921 2.39812C9.78971 2.36415 9.72276 2.34632 9.6547 2.34632C9.58664 2.34632 9.5197 2.36415 9.46019 2.39812V2.39812Z" fill="#F2F2F2"/>
</svg>
