<svg width="24" height="24" viewBox="0 0 24 24" xmlns="http://www.w3.org/2000/svg">
  <path
  id="discordSvgLogo"
  d="M20.0105 4.4809C22.6095 8.30207 23.893 12.6123 23.4132 17.5743C23.4111 17.5953 23.4002 17.6145 23.383 17.6272C21.4148 19.0724 19.508 19.9494 17.6279 20.531C17.6133 20.5355 17.5976 20.5352 17.5831 20.5303C17.5686 20.5254 17.556 20.5161 17.5471 20.5037C17.1127 19.8994 16.718 19.2622 16.3723 18.5931C16.3524 18.5537 16.3706 18.5063 16.4114 18.4907C17.0382 18.2546 17.6342 17.9715 18.2075 17.6364C18.2527 17.6099 18.2555 17.5452 18.2138 17.5141C18.0922 17.4238 17.9716 17.3289 17.8563 17.234C17.8347 17.2164 17.8057 17.213 17.7812 17.2248C14.0593 18.9435 9.98209 18.9435 6.21614 17.2248C6.19169 17.2138 6.16264 17.2176 6.14164 17.2348C6.02658 17.3298 5.90577 17.4238 5.78524 17.5141C5.74353 17.5452 5.74698 17.6099 5.79243 17.6364C6.36572 17.9652 6.96174 18.2546 7.58767 18.4919C7.62823 18.5074 7.6475 18.5537 7.62737 18.5931C7.28909 19.2631 6.89443 19.9002 6.45202 20.5046C6.43275 20.529 6.4011 20.5402 6.37119 20.531C4.50001 19.9494 2.59316 19.0724 0.625043 17.6272C0.608647 17.6145 0.596853 17.5944 0.595127 17.5734C0.19414 13.2813 1.01136 8.93548 3.9946 4.48003C4.0018 4.46824 4.01273 4.45904 4.02538 4.45357C5.49327 3.77989 7.06587 3.28426 8.70952 3.00121C8.73943 2.99661 8.76935 3.01042 8.78488 3.03688C8.98796 3.39645 9.2201 3.85755 9.37716 4.23438C11.1097 3.96974 12.8693 3.96974 14.638 4.23438C14.7951 3.86561 15.0192 3.39645 15.2214 3.03688C15.2286 3.02375 15.2398 3.01324 15.2533 3.00683C15.2668 3.00042 15.282 2.99846 15.2968 3.00121C16.9413 3.28513 18.5139 3.78075 19.9806 4.45357C19.9935 4.45904 20.0042 4.46824 20.0105 4.4809ZM10.2579 12.6416C10.2761 11.3728 9.35098 10.3228 8.18973 10.3228C7.03797 10.3228 6.12179 11.3636 6.12179 12.6416C6.12179 13.9193 7.05609 14.9601 8.18973 14.9601C9.34177 14.9601 10.2579 13.9193 10.2579 12.6416ZM17.9043 12.6416C17.9224 11.3728 16.9974 10.3228 15.8364 10.3228C14.6843 10.3228 13.7682 11.3636 13.7682 12.6416C13.7682 13.9193 14.7025 14.9601 15.8364 14.9601C16.9974 14.9601 17.9043 13.9193 17.9043 12.6416Z" fill="currentColor"/>
</svg>
