<svg width="24" height="24" viewBox="0 0 24 24" xmlns="http://www.w3.org/2000/svg">
  <g id="githubSvgLogo">
    <path
      d="M11.9536 0.341553C5.35266 0.341553 0 5.69327 0 12.2951C0 17.5766 3.42506 22.0573 8.17462 23.638C8.772 23.7486 8.99137 23.3786 8.99137 23.0629C8.99137 22.7779 8.98022 21.8362 8.97516 20.8374C5.64956 21.5605 4.94784 19.427 4.94784 19.427C4.40409 18.0453 3.62062 17.678 3.62062 17.678C2.53612 16.9361 3.70237 16.9512 3.70237 16.9512C4.90275 17.0356 5.53481 18.1831 5.53481 18.1831C6.60094 20.0106 8.33119 19.4822 9.01331 19.1769C9.12056 18.4042 9.43041 17.8769 9.77222 17.5784C7.11722 17.2761 4.32609 16.2511 4.32609 11.6709C4.32609 10.3659 4.79306 9.29946 5.55778 8.46237C5.43366 8.16124 5.02453 6.94549 5.67356 5.29896C5.67356 5.29896 6.67734 4.97768 8.96166 6.52427C9.91509 6.25933 10.9377 6.12658 11.9536 6.12208C12.9695 6.12658 13.9928 6.25933 14.9482 6.52427C17.2297 4.97768 18.2321 5.29896 18.2321 5.29896C18.8827 6.94549 18.4734 8.16124 18.3493 8.46237C19.1157 9.29946 19.5795 10.3658 19.5795 11.6709C19.5795 16.262 16.7831 17.273 14.1214 17.5689C14.5501 17.9398 14.9321 18.6673 14.9321 19.7825C14.9321 21.3819 14.9182 22.6691 14.9182 23.0629C14.9182 23.381 15.1334 23.7537 15.7394 23.6364C20.4863 22.054 23.9071 17.5749 23.9071 12.2951C23.9071 5.69327 18.5552 0.341553 11.9536 0.341553Z"
      fill="currentColor"
    />
    <path
      d="M4.47702 17.3697C4.45077 17.429 4.35721 17.4468 4.27218 17.4062C4.18546 17.3672 4.13671 17.2862 4.16483 17.2265C4.19062 17.1654 4.28418 17.1483 4.37071 17.1894C4.45762 17.2283 4.50712 17.3101 4.47702 17.3697ZM5.06502 17.8943C5.00802 17.9472 4.89655 17.9226 4.8209 17.8391C4.74271 17.7558 4.72808 17.6444 4.78593 17.5907C4.84471 17.5379 4.9528 17.5625 5.03118 17.646C5.10937 17.7303 5.12455 17.841 5.06493 17.8944M5.46843 18.5656C5.39512 18.6165 5.2753 18.5688 5.20133 18.4624C5.12812 18.3562 5.12812 18.2287 5.20293 18.1776C5.27718 18.1265 5.39512 18.1725 5.47012 18.2779C5.54324 18.386 5.54324 18.5135 5.46833 18.5657M6.15055 19.343C6.08502 19.4152 5.94552 19.3959 5.84333 19.2973C5.7389 19.2009 5.70974 19.0641 5.77546 18.9918C5.84174 18.9195 5.98208 18.9398 6.08502 19.0376C6.1888 19.1338 6.22049 19.2716 6.15065 19.343M7.03218 19.6055C7.0034 19.6991 6.86896 19.7417 6.73358 19.7019C6.5984 19.6609 6.5099 19.5513 6.53718 19.4567C6.5653 19.3624 6.7003 19.3181 6.83671 19.3607C6.97171 19.4014 7.0604 19.5103 7.03227 19.6055M8.03568 19.7168C8.03905 19.8154 7.92421 19.8972 7.78208 19.899C7.63912 19.9021 7.52352 19.8223 7.52202 19.7253C7.52202 19.6258 7.63424 19.5448 7.77712 19.5424C7.91924 19.5396 8.03568 19.6188 8.03568 19.7168ZM9.02137 19.679C9.03843 19.7752 8.93962 19.874 8.79852 19.9003C8.65977 19.9256 8.53133 19.8663 8.51362 19.7709C8.49637 19.6723 8.59705 19.5736 8.73552 19.548C8.8769 19.5234 9.00337 19.5813 9.02137 19.679Z"
      fill="currentColor"
    />
  </g>
</svg>
